<?xml version="1.0" standalone="no"?>
<!DOCTYPE svg PUBLIC "-//W3C//DTD SVG 20010904//EN"
 "http://www.w3.org/TR/2001/REC-SVG-20010904/DTD/svg10.dtd">
<svg version="1.0" xmlns="http://www.w3.org/2000/svg"
 width="181.000000pt" height="181.000000pt" viewBox="0 0 181.000000 181.000000"
 preserveAspectRatio="xMidYMid meet">
<metadata>
Created by potrace 1.11, written by Peter Selinger 2001-2013
</metadata>
<g transform="translate(0.000000,181.000000) scale(0.100000,-0.100000)"
fill="#000000" stroke="none">
<path d="M801 1303 c-12 -8 -20 -21 -17 -29 3 -7 -2 -17 -10 -22 -9 -5 -15
-12 -15 -15 2 -24 -14 -67 -25 -67 -15 0 -16 -3 -19 -65 -1 -22 -4 -47 -7 -55
-15 -39 -17 -51 -8 -45 6 3 10 1 10 -4 0 -6 -6 -12 -12 -12 -7 -1 -20 -2 -28
-3 -8 0 -18 4 -22 9 -5 7 -11 7 -15 0 -9 -12 -93 -12 -111 -1 -7 4 -12 3 -12
-2 0 -10 -92 -8 -109 2 -6 4 -11 3 -11 -2 0 -13 -63 -10 -72 3 -5 7 -8 7 -8 0
0 -6 -34 -10 -82 -9 -96 0 -140 -20 -155 -71 -6 -23 -10 -326 -4 -391 1 -12
71 -25 71 -14 0 3 34 3 75 0 42 -3 83 -2 93 1 9 4 21 4 25 2 7 -4 202 -6 223
-2 5 1 14 1 19 0 14 -3 209 -3 221 0 5 1 14 1 19 0 14 -3 209 -3 221 0 5 1 14
1 19 0 6 -1 60 -1 120 -1 61 1 117 1 125 1 8 0 77 0 153 -1 75 -1 141 1 146 5
5 3 12 1 15 -4 4 -6 18 -6 35 -1 16 4 32 6 34 4 9 -10 67 58 68 79 1 12 1 52
1 89 1 43 4 65 11 61 6 -4 7 -1 1 8 -5 8 -9 59 -10 115 0 55 -4 106 -8 113 -4
6 -22 11 -40 9 -17 -1 -37 2 -44 6 -7 4 -12 4 -12 -1 0 -10 -193 -8 -209 1 -6
4 -11 3 -11 -2 0 -10 -92 -8 -109 2 -6 4 -11 3 -11 -2 0 -10 -92 -8 -109 2 -6
4 -11 3 -11 -1 0 -5 -18 -9 -40 -9 -22 1 -40 4 -40 8 0 4 -13 3 -30 -2 -18 -5
-30 -5 -30 1 0 5 5 9 10 9 6 0 16 11 22 25 6 14 26 33 44 41 43 20 52 58 25
95 -12 16 -21 32 -21 37 0 5 -9 17 -20 27 -11 10 -20 23 -20 30 0 18 -34 45
-56 45 -27 0 -40 -26 -43 -85 -3 -55 -8 -66 -20 -46 -7 11 -10 11 -14 0 -4
-12 -6 -11 -6 0 -1 8 7 23 17 34 9 11 11 17 4 13 -7 -4 -15 -1 -18 8 -3 9 -14
16 -24 16 -10 0 -21 6 -23 13 -4 10 -6 10 -6 0 -2 -26 -29 -12 -34 16 -8 40
-37 55 -66 34z m204 -321 c-3 -3 -11 0 -18 7 -9 10 -8 11 6 5 10 -3 15 -9 12
-12z"/>
</g>
</svg>
